<svg aria-hidden="true" style="position: absolute; width: 0; height: 0; overflow: hidden;" version="1.1" xmlns="http://www.w3.org/2000/svg" xmlns:xlink="http://www.w3.org/1999/xlink">
	<defs>
		<symbol id="snake" viewBox="0 0 32 32">
			<path fill="#5ecc44" style="fill: var(--color1, #5ecc44)" d="M25.75 24.25c0 1.105-0.895 2-2 2v0h-14c-1.105 0-2-0.895-2-2s0.895-2 2-2v0h14c1.105 0 2 0.895 2 2v0z"></path>
			<path fill="#5ecc44" style="fill: var(--color1, #5ecc44)" d="M21.080 18.060c0.108-0.238 0.171-0.517 0.171-0.81 0-1.105-0.895-2-2-2-0 0-0.001 0-0.001 0h-5c-0 0-0.001 0-0.001 0-1.105 0-2 0.895-2 2 0 0.293 0.063 0.572 0.176 0.823l-0.005-0.013c0.024 0.056 0.037 0.121 0.037 0.19 0 0.275-0.222 0.499-0.497 0.5h9.58c-0.275-0.001-0.497-0.225-0.497-0.5 0-0.069 0.014-0.134 0.039-0.193l-0.001 0.003z"></path>
			<path fill="#4aa82f" style="fill: var(--color2, #4aa82f)" d="M23.33 21.56c0.108-0.238 0.171-0.517 0.171-0.81 0-1.105-0.895-2-2-2-0 0-0.001 0-0.001 0h-9.5c-0 0-0.001 0-0.001 0-1.105 0-2 0.895-2 2 0 0.293 0.063 0.572 0.176 0.823l-0.005-0.013c0.024 0.056 0.037 0.121 0.037 0.19 0 0.275-0.222 0.499-0.497 0.5h14.080c-0.275-0.001-0.497-0.225-0.497-0.5 0-0.069 0.014-0.134 0.039-0.193l-0.001 0.003z"></path>
			<path fill="#4aa82f" style="fill: var(--color2, #4aa82f)" d="M21.688 6.907c-1.12-0.704-2.476-1.132-3.931-1.157l-0.007-0c-0.017-0-0.038-0.001-0.058-0.001-1.625 0-2.942 1.317-2.942 2.942 0 0.020 0 0.041 0.001 0.061l-0-0.003v6.5h3v-4.75c0-0.276 0.224-0.5 0.5-0.5v0c1.813 0.125 2.188-0.61 3.657-0.297 1.273 0.27 1.475-0.367 1.453-0.89-0.032-0.735-0.782-1.388-1.672-1.905z"></path>
			<path fill="#000" style="fill: var(--color3, #000)" d="M19.75 7.75c0 0.552-0.448 1-1 1s-1-0.448-1-1c0-0.552 0.448-1 1-1s1 0.448 1 1z"></path>
			<path fill="#4aa82f" style="fill: var(--color2, #4aa82f)" d="M9.648 26.25h-0.023c-1.558 0-2.75-0.58-3.397-1.633-0.78-1.293-0.593-3.175 0.527-5.3 0.019-0.037 0.055-0.063 0.097-0.067l0.001-0c0.004-0 0.008-0.001 0.012-0.001 0.038 0 0.073 0.018 0.095 0.045l0 0c0.31 0.36 0.25 0.977 0.18 1.628-0.077 0.765-0.165 1.63 0.335 2.185 0.125 0.136 0.273 0.248 0.439 0.331l0.009 0.004c-0.109 0.235-0.173 0.51-0.173 0.8 0 0.003 0 0.005 0 0.008v-0c0 0.001 0 0.002 0 0.003 0 1.069 0.838 1.941 1.893 1.997l0.005 0z"></path>
			<path fill="#ea5036" style="fill: var(--color4, #ea5036)" d="M26.093 8.982l-0.645 0.408 0.48 0.682c0.030 0.041 0.048 0.092 0.048 0.147 0 0.086-0.044 0.162-0.11 0.207l-0.001 0.001c-0.041 0.030-0.091 0.047-0.146 0.047s-0.106-0.018-0.147-0.048l0.001 0.001-0.823-0.58c-0.111-0.076-0.242-0.133-0.383-0.161l-0.007-0.001-1.16-0.217c0.105-0.157 0.167-0.35 0.167-0.558 0-0.034-0.002-0.068-0.005-0.101l0 0.004c-0.005-0.125-0.030-0.243-0.073-0.353l0.003 0.008 1.29 0.25c0.057 0.011 0.123 0.018 0.19 0.018s0.133-0.006 0.196-0.019l-0.006 0.001 0.948-0.19c0.027-0.011 0.059-0.018 0.093-0.018 0.138 0 0.25 0.112 0.25 0.25 0 0.105-0.065 0.195-0.156 0.232l-0.002 0.001z"></path>
		</symbol>
		<symbol id="reload" viewBox="0 0 32 32">
			<path d="M23.5 18c0 4.418-3.582 8-8 8s-8-3.582-8-8c0-4.085 3.917-6.595 8-6.951v4.951l10-7v-1l-10-8v5.042c-7.347 0.432-14 5.561-14 12.958 0 7.732 6.268 14 14 14s14-6.268 14-14h-6z"></path>
		</symbol>
		<symbol id="settings" viewBox="0 0 32 32">
			<path d="M29.181 19.070c-1.679-2.908-0.669-6.634 2.255-8.328l-3.145-5.447c-0.898 0.527-1.943 0.829-3.058 0.829-3.361 0-6.085-2.742-6.085-6.125h-6.289c0.008 1.044-0.252 2.103-0.811 3.070-1.679 2.908-5.411 3.897-8.339 2.211l-3.144 5.447c0.905 0.515 1.689 1.268 2.246 2.234 1.676 2.903 0.672 6.623-2.241 8.319l3.145 5.447c0.895-0.522 1.935-0.82 3.044-0.82 3.35 0 6.067 2.725 6.084 6.092h6.289c-0.003-1.034 0.259-2.080 0.811-3.038 1.676-2.903 5.399-3.894 8.325-2.219l3.145-5.447c-0.899-0.515-1.678-1.266-2.232-2.226zM16 22.479c-3.578 0-6.479-2.901-6.479-6.479s2.901-6.479 6.479-6.479c3.578 0 6.479 2.901 6.479 6.479s-2.901 6.479-6.479 6.479z"></path>
		</symbol>
		<symbol id="cup" viewBox="0 0 32 32">
			<path d="M26 6v-4h-20v4h-6v4c0 3.314 2.686 6 6 6 0.627 0 1.232-0.096 1.801-0.275 1.443 2.063 3.644 3.556 6.199 4.075v6.2h-2c-2.209 0-4 1.791-4 4h16c0-2.209-1.791-4-4-4h-2v-6.2c2.555-0.519 4.756-2.012 6.199-4.075 0.568 0.179 1.173 0.275 1.801 0.275 3.314 0 6-2.686 6-6v-4h-6zM6 13.625c-1.999 0-3.625-1.626-3.625-3.625v-2h3.625v2c0 1.256 0.232 2.457 0.655 3.565-0.213 0.039-0.431 0.060-0.655 0.060zM29.625 10c0 1.999-1.626 3.625-3.625 3.625-0.224 0-0.442-0.021-0.655-0.060 0.423-1.107 0.655-2.309 0.655-3.565v-2h3.625v2z"></path>
		</symbol>
		<symbol id="arrow" viewBox="0 0 32 32">
			<path d="M16 1l-15 15h9v16h12v-16h9z"></path>
		</symbol>
		<symbol id="play" viewBox="0 0 28 32">
			<path d="M26.088 12.891c2.441 1.354 2.441 4.864 0 6.218l-21.155 11.739c-2.37 1.315-5.281-0.399-5.281-3.109v-23.477c0-2.71 2.911-4.424 5.281-3.109l21.155 11.739z"></path>
		</symbol>
		<symbol id="pause" viewBox="0 0 32 32">
			<path d="M11 0h-6c-0.553 0-1 0.448-1 1v30c0 0.553 0.447 1 1 1h6c0.553 0 1-0.447 1-1v-30c0-0.552-0.447-1-1-1zM27 0h-6c-0.553 0-1 0.448-1 1v30c0 0.553 0.447 1 1 1h6c0.553 0 1-0.447 1-1v-30c0-0.552-0.447-1-1-1z"></path>
		</symbol>
		<symbol id="menu" viewBox="0 0 32 32">
			<path d="M28.5 16c0 0.398-0.158 0.779-0.439 1.061s-0.663 0.439-1.061 0.439h-22c-0.398 0-0.779-0.158-1.061-0.439s-0.439-0.663-0.439-1.061c0-0.398 0.158-0.779 0.439-1.061s0.663-0.439 1.061-0.439h22c0.398 0 0.779 0.158 1.061 0.439s0.439 0.663 0.439 1.061zM5 9.5h22c0.398 0 0.779-0.158 1.061-0.439s0.439-0.663 0.439-1.061c0-0.398-0.158-0.779-0.439-1.061s-0.663-0.439-1.061-0.439h-22c-0.398 0-0.779 0.158-1.061 0.439s-0.439 0.663-0.439 1.061c0 0.398 0.158 0.779 0.439 1.061s0.663 0.439 1.061 0.439zM27 22.5h-22c-0.398 0-0.779 0.158-1.061 0.439s-0.439 0.663-0.439 1.061c0 0.398 0.158 0.779 0.439 1.061s0.663 0.439 1.061 0.439h22c0.398 0 0.779-0.158 1.061-0.439s0.439-0.663 0.439-1.061c0-0.398-0.158-0.779-0.439-1.061s-0.663-0.439-1.061-0.439z"></path>
		</symbol>
		<symbol id="close" viewBox="0 0 32 32">
			<path stroke-linejoin="round" stroke-linecap="round" stroke-miterlimit="4" stroke-width="3.2" d="M24 8l-16 16"></path>
			<path stroke-linejoin="round" stroke-linecap="round" stroke-miterlimit="4" stroke-width="3.2" d="M8 8l16 16"></path>
		</symbol>
	</defs>
</svg>